<mxfile host="app.diagrams.net" modified="2024-04-08T07:14:49.842Z" agent="Mozilla/5.0 (Windows NT 10.0; Win64; x64) AppleWebKit/537.36 (KHTML, like Gecko) Chrome/123.0.0.0 Safari/537.36" etag="N0kJfubBsXiPj4y7m0wu" version="23.0.2" type="github">
  <diagram name="Page-1" id="FsE-O-lBcmYUon80JMM_">
    <mxGraphModel dx="4834" dy="-1454" grid="1" gridSize="10" guides="1" tooltips="1" connect="1" arrows="1" fold="1" page="1" pageScale="1" pageWidth="850" pageHeight="1100" math="0" shadow="0">
      <root>
        <mxCell id="0" />
        <mxCell id="1" parent="0" />
        <mxCell id="K5d2E1DVl8FYSgaZDxzp-1" style="edgeStyle=orthogonalEdgeStyle;rounded=0;orthogonalLoop=1;jettySize=auto;html=1;entryX=0;entryY=0.5;entryDx=0;entryDy=0;exitX=0.5;exitY=0;exitDx=0;exitDy=0;exitPerimeter=0;endArrow=none;endFill=0;" edge="1" parent="1" source="K5d2E1DVl8FYSgaZDxzp-3" target="K5d2E1DVl8FYSgaZDxzp-12">
          <mxGeometry relative="1" as="geometry" />
        </mxCell>
        <mxCell id="K5d2E1DVl8FYSgaZDxzp-2" style="edgeStyle=orthogonalEdgeStyle;rounded=0;orthogonalLoop=1;jettySize=auto;html=1;exitX=0.75;exitY=0.1;exitDx=0;exitDy=0;exitPerimeter=0;entryX=0;entryY=0.5;entryDx=0;entryDy=0;endArrow=none;endFill=0;" edge="1" parent="1" source="K5d2E1DVl8FYSgaZDxzp-3" target="K5d2E1DVl8FYSgaZDxzp-14">
          <mxGeometry relative="1" as="geometry">
            <Array as="points">
              <mxPoint x="-2870" y="3199" />
              <mxPoint x="-2870" y="3165" />
            </Array>
          </mxGeometry>
        </mxCell>
        <mxCell id="K5d2E1DVl8FYSgaZDxzp-3" value="Адмнистратор" style="shape=umlActor;html=1;verticalLabelPosition=bottom;verticalAlign=top;align=center;" vertex="1" parent="1">
          <mxGeometry x="-2910" y="3192.5" width="30" height="60" as="geometry" />
        </mxCell>
        <mxCell id="K5d2E1DVl8FYSgaZDxzp-4" value="Пользователь" style="shape=umlActor;html=1;verticalLabelPosition=bottom;verticalAlign=top;align=center;" vertex="1" parent="1">
          <mxGeometry x="-2270" y="3205" width="30" height="60" as="geometry" />
        </mxCell>
        <mxCell id="K5d2E1DVl8FYSgaZDxzp-5" value="Создатель событий" style="shape=umlActor;html=1;verticalLabelPosition=bottom;verticalAlign=top;align=center;" vertex="1" parent="1">
          <mxGeometry x="-2270" y="3457.5" width="30" height="60" as="geometry" />
        </mxCell>
        <mxCell id="K5d2E1DVl8FYSgaZDxzp-6" style="edgeStyle=orthogonalEdgeStyle;rounded=0;orthogonalLoop=1;jettySize=auto;html=1;entryX=0;entryY=0.5;entryDx=0;entryDy=0;endArrow=none;endFill=0;" edge="1" parent="1" source="K5d2E1DVl8FYSgaZDxzp-7" target="K5d2E1DVl8FYSgaZDxzp-11">
          <mxGeometry relative="1" as="geometry">
            <mxPoint x="-2900" y="3449.9999999999995" as="targetPoint" />
            <Array as="points">
              <mxPoint x="-2905" y="3468" />
            </Array>
          </mxGeometry>
        </mxCell>
        <mxCell id="K5d2E1DVl8FYSgaZDxzp-7" value="База данных" style="shape=umlActor;html=1;verticalLabelPosition=bottom;verticalAlign=top;align=center;" vertex="1" parent="1">
          <mxGeometry x="-2920" y="3490" width="30" height="60" as="geometry" />
        </mxCell>
        <mxCell id="K5d2E1DVl8FYSgaZDxzp-8" style="edgeStyle=orthogonalEdgeStyle;rounded=0;orthogonalLoop=1;jettySize=auto;html=1;exitX=0;exitY=1;exitDx=0;exitDy=0;entryX=0.5;entryY=0;entryDx=0;entryDy=0;dashed=1;" edge="1" parent="1" source="K5d2E1DVl8FYSgaZDxzp-10" target="K5d2E1DVl8FYSgaZDxzp-11">
          <mxGeometry relative="1" as="geometry">
            <mxPoint x="-2700" y="3389.9999999999995" as="targetPoint" />
          </mxGeometry>
        </mxCell>
        <mxCell id="K5d2E1DVl8FYSgaZDxzp-9" value="&amp;lt;&amp;lt;Extend&amp;gt;&amp;gt;" style="edgeLabel;html=1;align=center;verticalAlign=middle;resizable=0;points=[];" vertex="1" connectable="0" parent="K5d2E1DVl8FYSgaZDxzp-8">
          <mxGeometry x="-0.0191" y="1" relative="1" as="geometry">
            <mxPoint as="offset" />
          </mxGeometry>
        </mxCell>
        <mxCell id="K5d2E1DVl8FYSgaZDxzp-10" value="Работа с приложением" style="ellipse;whiteSpace=wrap;html=1;" vertex="1" parent="1">
          <mxGeometry x="-2700" y="3307.5" width="200" height="105" as="geometry" />
        </mxCell>
        <mxCell id="K5d2E1DVl8FYSgaZDxzp-11" value="&lt;font style=&quot;font-size: 10px;&quot;&gt;Определить представление данных&lt;/font&gt;" style="ellipse;whiteSpace=wrap;html=1;" vertex="1" parent="1">
          <mxGeometry x="-2850" y="3432.5" width="140" height="70" as="geometry" />
        </mxCell>
        <mxCell id="K5d2E1DVl8FYSgaZDxzp-12" value="&lt;font style=&quot;font-size: 11px;&quot;&gt;Администрировать БД&lt;/font&gt;" style="ellipse;whiteSpace=wrap;html=1;" vertex="1" parent="1">
          <mxGeometry x="-2850" y="3056.25" width="140" height="70" as="geometry" />
        </mxCell>
        <mxCell id="K5d2E1DVl8FYSgaZDxzp-13" value="&lt;font style=&quot;font-size: 11px;&quot;&gt;Поиск информации хранимой в БД&lt;/font&gt;" style="ellipse;whiteSpace=wrap;html=1;" vertex="1" parent="1">
          <mxGeometry x="-2840" y="3212.5" width="120" height="57.5" as="geometry" />
        </mxCell>
        <mxCell id="K5d2E1DVl8FYSgaZDxzp-14" value="&lt;font style=&quot;font-size: 11px;&quot;&gt;Удалить пользователей&lt;/font&gt;" style="ellipse;whiteSpace=wrap;html=1;" vertex="1" parent="1">
          <mxGeometry x="-2850" y="3130" width="140" height="70" as="geometry" />
        </mxCell>
        <mxCell id="K5d2E1DVl8FYSgaZDxzp-15" style="edgeStyle=orthogonalEdgeStyle;rounded=0;orthogonalLoop=1;jettySize=auto;html=1;entryX=0;entryY=0.5;entryDx=0;entryDy=0;endArrow=none;endFill=0;" edge="1" parent="1" source="K5d2E1DVl8FYSgaZDxzp-3" target="K5d2E1DVl8FYSgaZDxzp-13">
          <mxGeometry relative="1" as="geometry">
            <mxPoint x="-2890" y="3200" as="sourcePoint" />
            <mxPoint x="-2820" y="3100" as="targetPoint" />
          </mxGeometry>
        </mxCell>
        <mxCell id="K5d2E1DVl8FYSgaZDxzp-16" value="Модератор" style="shape=umlActor;html=1;verticalLabelPosition=bottom;verticalAlign=top;align=center;" vertex="1" parent="1">
          <mxGeometry x="-2910" y="3317.5" width="30" height="60" as="geometry" />
        </mxCell>
        <mxCell id="K5d2E1DVl8FYSgaZDxzp-17" value="&lt;font style=&quot;font-size: 9px;&quot;&gt;Редактирование / Добавлении информации в БД&lt;/font&gt;" style="ellipse;whiteSpace=wrap;html=1;" vertex="1" parent="1">
          <mxGeometry x="-2870" y="3330" width="120" height="57.5" as="geometry" />
        </mxCell>
        <mxCell id="K5d2E1DVl8FYSgaZDxzp-18" style="edgeStyle=orthogonalEdgeStyle;rounded=0;orthogonalLoop=1;jettySize=auto;html=1;entryX=0;entryY=0.5;entryDx=0;entryDy=0;endArrow=none;endFill=0;" edge="1" parent="1" source="K5d2E1DVl8FYSgaZDxzp-16" target="K5d2E1DVl8FYSgaZDxzp-17">
          <mxGeometry relative="1" as="geometry">
            <mxPoint x="-2885" y="3203" as="sourcePoint" />
            <mxPoint x="-2820" y="3100" as="targetPoint" />
            <Array as="points">
              <mxPoint x="-2870" y="3360" />
            </Array>
          </mxGeometry>
        </mxCell>
        <mxCell id="K5d2E1DVl8FYSgaZDxzp-19" style="edgeStyle=orthogonalEdgeStyle;rounded=0;orthogonalLoop=1;jettySize=auto;html=1;entryX=0.5;entryY=0;entryDx=0;entryDy=0;entryPerimeter=0;endArrow=block;endFill=0;" edge="1" parent="1" source="K5d2E1DVl8FYSgaZDxzp-3" target="K5d2E1DVl8FYSgaZDxzp-16">
          <mxGeometry relative="1" as="geometry" />
        </mxCell>
        <mxCell id="K5d2E1DVl8FYSgaZDxzp-20" value="Создание мероприятия" style="ellipse;whiteSpace=wrap;html=1;" vertex="1" parent="1">
          <mxGeometry x="-2580" y="3432.5" width="120" height="55" as="geometry" />
        </mxCell>
        <mxCell id="K5d2E1DVl8FYSgaZDxzp-21" value="Удаление мероприятия" style="ellipse;whiteSpace=wrap;html=1;" vertex="1" parent="1">
          <mxGeometry x="-2600" y="3500" width="110" height="60" as="geometry" />
        </mxCell>
        <mxCell id="K5d2E1DVl8FYSgaZDxzp-22" style="edgeStyle=orthogonalEdgeStyle;rounded=0;orthogonalLoop=1;jettySize=auto;html=1;exitX=0.5;exitY=1;exitDx=0;exitDy=0;entryX=0;entryY=0.5;entryDx=0;entryDy=0;dashed=1;" edge="1" parent="1" source="K5d2E1DVl8FYSgaZDxzp-10" target="K5d2E1DVl8FYSgaZDxzp-20">
          <mxGeometry relative="1" as="geometry">
            <mxPoint x="-2720" y="3490" as="targetPoint" />
            <mxPoint x="-2611" y="3454" as="sourcePoint" />
          </mxGeometry>
        </mxCell>
        <mxCell id="K5d2E1DVl8FYSgaZDxzp-23" value="&amp;lt;&amp;lt;Include&amp;gt;&amp;gt;" style="edgeLabel;html=1;align=center;verticalAlign=middle;resizable=0;points=[];" vertex="1" connectable="0" parent="K5d2E1DVl8FYSgaZDxzp-22">
          <mxGeometry x="-0.0191" y="1" relative="1" as="geometry">
            <mxPoint as="offset" />
          </mxGeometry>
        </mxCell>
        <mxCell id="K5d2E1DVl8FYSgaZDxzp-24" style="edgeStyle=orthogonalEdgeStyle;rounded=0;orthogonalLoop=1;jettySize=auto;html=1;exitX=0.308;exitY=0.964;exitDx=0;exitDy=0;entryX=0;entryY=0.5;entryDx=0;entryDy=0;dashed=1;exitPerimeter=0;" edge="1" parent="1" source="K5d2E1DVl8FYSgaZDxzp-10" target="K5d2E1DVl8FYSgaZDxzp-21">
          <mxGeometry relative="1" as="geometry">
            <mxPoint x="-2570" y="3470" as="targetPoint" />
            <mxPoint x="-2630" y="3420" as="sourcePoint" />
          </mxGeometry>
        </mxCell>
        <mxCell id="K5d2E1DVl8FYSgaZDxzp-25" value="&amp;lt;&amp;lt;Include&amp;gt;&amp;gt;" style="edgeLabel;html=1;align=center;verticalAlign=middle;resizable=0;points=[];" vertex="1" connectable="0" parent="K5d2E1DVl8FYSgaZDxzp-24">
          <mxGeometry x="-0.0191" y="1" relative="1" as="geometry">
            <mxPoint as="offset" />
          </mxGeometry>
        </mxCell>
        <mxCell id="K5d2E1DVl8FYSgaZDxzp-26" style="edgeStyle=orthogonalEdgeStyle;rounded=0;orthogonalLoop=1;jettySize=auto;html=1;endArrow=block;endFill=0;exitX=0.5;exitY=0;exitDx=0;exitDy=0;exitPerimeter=0;" edge="1" parent="1" source="K5d2E1DVl8FYSgaZDxzp-5" target="K5d2E1DVl8FYSgaZDxzp-4">
          <mxGeometry relative="1" as="geometry">
            <mxPoint x="-2240.83" y="3355" as="sourcePoint" />
            <mxPoint x="-2240.83" y="3420" as="targetPoint" />
          </mxGeometry>
        </mxCell>
        <mxCell id="K5d2E1DVl8FYSgaZDxzp-27" style="edgeStyle=orthogonalEdgeStyle;rounded=0;orthogonalLoop=1;jettySize=auto;html=1;entryX=0.25;entryY=0.1;entryDx=0;entryDy=0;endArrow=none;endFill=0;exitX=1;exitY=0.5;exitDx=0;exitDy=0;entryPerimeter=0;" edge="1" parent="1" source="K5d2E1DVl8FYSgaZDxzp-20" target="K5d2E1DVl8FYSgaZDxzp-5">
          <mxGeometry relative="1" as="geometry">
            <mxPoint x="-2480.5" y="3381" as="sourcePoint" />
            <mxPoint x="-2360.5" y="3350" as="targetPoint" />
          </mxGeometry>
        </mxCell>
        <mxCell id="K5d2E1DVl8FYSgaZDxzp-28" style="edgeStyle=orthogonalEdgeStyle;rounded=0;orthogonalLoop=1;jettySize=auto;html=1;endArrow=none;endFill=0;exitX=1;exitY=0.5;exitDx=0;exitDy=0;" edge="1" parent="1" source="K5d2E1DVl8FYSgaZDxzp-21" target="K5d2E1DVl8FYSgaZDxzp-5">
          <mxGeometry relative="1" as="geometry">
            <mxPoint x="-2450" y="3470" as="sourcePoint" />
            <mxPoint x="-2332" y="3476" as="targetPoint" />
          </mxGeometry>
        </mxCell>
        <mxCell id="K5d2E1DVl8FYSgaZDxzp-29" value="Присоединиться к мероприятию" style="ellipse;whiteSpace=wrap;html=1;" vertex="1" parent="1">
          <mxGeometry x="-2470" y="3275" width="120" height="55" as="geometry" />
        </mxCell>
        <mxCell id="K5d2E1DVl8FYSgaZDxzp-30" value="Покинуть мероприятия" style="ellipse;whiteSpace=wrap;html=1;" vertex="1" parent="1">
          <mxGeometry x="-2460" y="3375" width="120" height="55" as="geometry" />
        </mxCell>
        <mxCell id="K5d2E1DVl8FYSgaZDxzp-31" value="Редактировать информацию о мероприятии" style="ellipse;whiteSpace=wrap;html=1;" vertex="1" parent="1">
          <mxGeometry x="-2480" y="3140" width="120" height="55" as="geometry" />
        </mxCell>
        <mxCell id="K5d2E1DVl8FYSgaZDxzp-32" value="Загрузка фото" style="ellipse;whiteSpace=wrap;html=1;" vertex="1" parent="1">
          <mxGeometry x="-2480" y="3212.5" width="120" height="55" as="geometry" />
        </mxCell>
        <mxCell id="K5d2E1DVl8FYSgaZDxzp-33" style="edgeStyle=orthogonalEdgeStyle;rounded=0;orthogonalLoop=1;jettySize=auto;html=1;exitX=0.5;exitY=0;exitDx=0;exitDy=0;entryX=0;entryY=0.5;entryDx=0;entryDy=0;dashed=1;" edge="1" parent="1" source="K5d2E1DVl8FYSgaZDxzp-10" target="K5d2E1DVl8FYSgaZDxzp-31">
          <mxGeometry relative="1" as="geometry">
            <mxPoint x="-2542" y="3317.5" as="targetPoint" />
            <mxPoint x="-2580" y="3196.5" as="sourcePoint" />
          </mxGeometry>
        </mxCell>
        <mxCell id="K5d2E1DVl8FYSgaZDxzp-34" value="&amp;lt;&amp;lt;Include&amp;gt;&amp;gt;" style="edgeLabel;html=1;align=center;verticalAlign=middle;resizable=0;points=[];" vertex="1" connectable="0" parent="K5d2E1DVl8FYSgaZDxzp-33">
          <mxGeometry x="-0.0191" y="1" relative="1" as="geometry">
            <mxPoint as="offset" />
          </mxGeometry>
        </mxCell>
        <mxCell id="K5d2E1DVl8FYSgaZDxzp-35" style="edgeStyle=orthogonalEdgeStyle;rounded=0;orthogonalLoop=1;jettySize=auto;html=1;exitX=0.625;exitY=0.005;exitDx=0;exitDy=0;entryX=0;entryY=0.5;entryDx=0;entryDy=0;dashed=1;exitPerimeter=0;" edge="1" parent="1" source="K5d2E1DVl8FYSgaZDxzp-10" target="K5d2E1DVl8FYSgaZDxzp-32">
          <mxGeometry relative="1" as="geometry">
            <mxPoint x="-2470" y="3178" as="targetPoint" />
            <mxPoint x="-2590" y="3318" as="sourcePoint" />
          </mxGeometry>
        </mxCell>
        <mxCell id="K5d2E1DVl8FYSgaZDxzp-36" value="&amp;lt;&amp;lt;Include&amp;gt;&amp;gt;" style="edgeLabel;html=1;align=center;verticalAlign=middle;resizable=0;points=[];" vertex="1" connectable="0" parent="K5d2E1DVl8FYSgaZDxzp-35">
          <mxGeometry x="-0.0191" y="1" relative="1" as="geometry">
            <mxPoint as="offset" />
          </mxGeometry>
        </mxCell>
        <mxCell id="K5d2E1DVl8FYSgaZDxzp-37" style="edgeStyle=orthogonalEdgeStyle;rounded=0;orthogonalLoop=1;jettySize=auto;html=1;dashed=1;entryX=0;entryY=0.5;entryDx=0;entryDy=0;" edge="1" parent="1" target="K5d2E1DVl8FYSgaZDxzp-29">
          <mxGeometry relative="1" as="geometry">
            <mxPoint x="-2480" y="3320" as="targetPoint" />
            <mxPoint x="-2529" y="3323" as="sourcePoint" />
          </mxGeometry>
        </mxCell>
        <mxCell id="K5d2E1DVl8FYSgaZDxzp-38" value="&amp;lt;&amp;lt;Include&amp;gt;&amp;gt;" style="edgeLabel;html=1;align=center;verticalAlign=middle;resizable=0;points=[];" vertex="1" connectable="0" parent="K5d2E1DVl8FYSgaZDxzp-37">
          <mxGeometry x="-0.0191" y="1" relative="1" as="geometry">
            <mxPoint as="offset" />
          </mxGeometry>
        </mxCell>
        <mxCell id="K5d2E1DVl8FYSgaZDxzp-39" style="edgeStyle=orthogonalEdgeStyle;rounded=0;orthogonalLoop=1;jettySize=auto;html=1;dashed=1;entryX=0;entryY=0.5;entryDx=0;entryDy=0;exitX=0.992;exitY=0.367;exitDx=0;exitDy=0;exitPerimeter=0;" edge="1" parent="1" source="K5d2E1DVl8FYSgaZDxzp-10" target="K5d2E1DVl8FYSgaZDxzp-30">
          <mxGeometry relative="1" as="geometry">
            <mxPoint x="-2430" y="3323" as="targetPoint" />
            <mxPoint x="-2519" y="3333" as="sourcePoint" />
            <Array as="points">
              <mxPoint x="-2470" y="3346" />
              <mxPoint x="-2470" y="3402" />
            </Array>
          </mxGeometry>
        </mxCell>
        <mxCell id="K5d2E1DVl8FYSgaZDxzp-40" value="&amp;lt;&amp;lt;Include&amp;gt;&amp;gt;" style="edgeLabel;html=1;align=center;verticalAlign=middle;resizable=0;points=[];" vertex="1" connectable="0" parent="K5d2E1DVl8FYSgaZDxzp-39">
          <mxGeometry x="-0.0191" y="1" relative="1" as="geometry">
            <mxPoint as="offset" />
          </mxGeometry>
        </mxCell>
        <mxCell id="K5d2E1DVl8FYSgaZDxzp-41" style="edgeStyle=orthogonalEdgeStyle;rounded=0;orthogonalLoop=1;jettySize=auto;html=1;endArrow=none;endFill=0;exitX=1;exitY=0.5;exitDx=0;exitDy=0;entryX=0.5;entryY=0;entryDx=0;entryDy=0;entryPerimeter=0;" edge="1" parent="1" source="K5d2E1DVl8FYSgaZDxzp-31" target="K5d2E1DVl8FYSgaZDxzp-4">
          <mxGeometry relative="1" as="geometry">
            <mxPoint x="-2450" y="3470" as="sourcePoint" />
            <mxPoint x="-2210" y="3190" as="targetPoint" />
          </mxGeometry>
        </mxCell>
        <mxCell id="K5d2E1DVl8FYSgaZDxzp-42" style="edgeStyle=orthogonalEdgeStyle;rounded=0;orthogonalLoop=1;jettySize=auto;html=1;entryX=0.25;entryY=0.1;entryDx=0;entryDy=0;entryPerimeter=0;endArrow=none;endFill=0;" edge="1" parent="1" source="K5d2E1DVl8FYSgaZDxzp-32" target="K5d2E1DVl8FYSgaZDxzp-4">
          <mxGeometry relative="1" as="geometry">
            <Array as="points">
              <mxPoint x="-2340" y="3240" />
              <mxPoint x="-2340" y="3211" />
            </Array>
          </mxGeometry>
        </mxCell>
        <mxCell id="K5d2E1DVl8FYSgaZDxzp-43" style="edgeStyle=orthogonalEdgeStyle;rounded=0;orthogonalLoop=1;jettySize=auto;html=1;endArrow=none;endFill=0;exitX=1;exitY=0;exitDx=0;exitDy=0;" edge="1" parent="1" source="K5d2E1DVl8FYSgaZDxzp-29" target="K5d2E1DVl8FYSgaZDxzp-4">
          <mxGeometry relative="1" as="geometry">
            <mxPoint x="-2350" y="3290" as="sourcePoint" />
            <mxPoint x="-2252" y="3221" as="targetPoint" />
            <Array as="points">
              <mxPoint x="-2330" y="3283" />
              <mxPoint x="-2330" y="3235" />
            </Array>
          </mxGeometry>
        </mxCell>
        <mxCell id="K5d2E1DVl8FYSgaZDxzp-44" style="edgeStyle=orthogonalEdgeStyle;rounded=0;orthogonalLoop=1;jettySize=auto;html=1;entryX=0;entryY=0.917;entryDx=0;entryDy=0;entryPerimeter=0;endArrow=none;endFill=0;" edge="1" parent="1" source="K5d2E1DVl8FYSgaZDxzp-30" target="K5d2E1DVl8FYSgaZDxzp-4">
          <mxGeometry relative="1" as="geometry" />
        </mxCell>
        <mxCell id="K5d2E1DVl8FYSgaZDxzp-45" style="edgeStyle=orthogonalEdgeStyle;rounded=0;orthogonalLoop=1;jettySize=auto;html=1;exitX=1;exitY=0.5;exitDx=0;exitDy=0;entryX=0.066;entryY=0.233;entryDx=0;entryDy=0;dashed=1;entryPerimeter=0;" edge="1" parent="1" source="K5d2E1DVl8FYSgaZDxzp-17" target="K5d2E1DVl8FYSgaZDxzp-10">
          <mxGeometry relative="1" as="geometry">
            <mxPoint x="-2470" y="3250" as="targetPoint" />
            <mxPoint x="-2565" y="3318" as="sourcePoint" />
          </mxGeometry>
        </mxCell>
        <mxCell id="K5d2E1DVl8FYSgaZDxzp-46" value="&amp;lt;&amp;lt;Include&amp;gt;&amp;gt;" style="edgeLabel;html=1;align=center;verticalAlign=middle;resizable=0;points=[];" vertex="1" connectable="0" parent="K5d2E1DVl8FYSgaZDxzp-45">
          <mxGeometry x="-0.0191" y="1" relative="1" as="geometry">
            <mxPoint as="offset" />
          </mxGeometry>
        </mxCell>
        <mxCell id="K5d2E1DVl8FYSgaZDxzp-47" style="edgeStyle=orthogonalEdgeStyle;rounded=0;orthogonalLoop=1;jettySize=auto;html=1;exitX=1;exitY=0.5;exitDx=0;exitDy=0;entryX=0;entryY=0;entryDx=0;entryDy=0;dashed=1;" edge="1" parent="1" source="K5d2E1DVl8FYSgaZDxzp-13" target="K5d2E1DVl8FYSgaZDxzp-10">
          <mxGeometry relative="1" as="geometry">
            <mxPoint x="-2460" y="3260" as="targetPoint" />
            <mxPoint x="-2555" y="3328" as="sourcePoint" />
            <Array as="points">
              <mxPoint x="-2700" y="3241" />
              <mxPoint x="-2700" y="3323" />
            </Array>
          </mxGeometry>
        </mxCell>
        <mxCell id="K5d2E1DVl8FYSgaZDxzp-48" value="&amp;lt;&amp;lt;Include&amp;gt;&amp;gt;" style="edgeLabel;html=1;align=center;verticalAlign=middle;resizable=0;points=[];" vertex="1" connectable="0" parent="K5d2E1DVl8FYSgaZDxzp-47">
          <mxGeometry x="-0.0191" y="1" relative="1" as="geometry">
            <mxPoint as="offset" />
          </mxGeometry>
        </mxCell>
        <mxCell id="K5d2E1DVl8FYSgaZDxzp-49" style="edgeStyle=orthogonalEdgeStyle;rounded=0;orthogonalLoop=1;jettySize=auto;html=1;exitX=1;exitY=0.5;exitDx=0;exitDy=0;entryX=0.21;entryY=0.089;entryDx=0;entryDy=0;dashed=1;entryPerimeter=0;" edge="1" parent="1" source="K5d2E1DVl8FYSgaZDxzp-14" target="K5d2E1DVl8FYSgaZDxzp-10">
          <mxGeometry relative="1" as="geometry">
            <mxPoint x="-2661" y="3333" as="targetPoint" />
            <mxPoint x="-2710" y="3251" as="sourcePoint" />
            <Array as="points">
              <mxPoint x="-2680" y="3165" />
              <mxPoint x="-2680" y="3250" />
              <mxPoint x="-2658" y="3250" />
            </Array>
          </mxGeometry>
        </mxCell>
        <mxCell id="K5d2E1DVl8FYSgaZDxzp-50" value="&amp;lt;&amp;lt;Include&amp;gt;&amp;gt;" style="edgeLabel;html=1;align=center;verticalAlign=middle;resizable=0;points=[];" vertex="1" connectable="0" parent="K5d2E1DVl8FYSgaZDxzp-49">
          <mxGeometry x="-0.0191" y="1" relative="1" as="geometry">
            <mxPoint as="offset" />
          </mxGeometry>
        </mxCell>
        <mxCell id="K5d2E1DVl8FYSgaZDxzp-51" style="edgeStyle=orthogonalEdgeStyle;rounded=0;orthogonalLoop=1;jettySize=auto;html=1;exitX=1;exitY=0.5;exitDx=0;exitDy=0;entryX=0.32;entryY=0.045;entryDx=0;entryDy=0;dashed=1;entryPerimeter=0;" edge="1" parent="1" source="K5d2E1DVl8FYSgaZDxzp-12" target="K5d2E1DVl8FYSgaZDxzp-10">
          <mxGeometry relative="1" as="geometry">
            <mxPoint x="-2648" y="3327" as="targetPoint" />
            <mxPoint x="-2700" y="3175" as="sourcePoint" />
            <Array as="points">
              <mxPoint x="-2710" y="3090" />
              <mxPoint x="-2636" y="3090" />
            </Array>
          </mxGeometry>
        </mxCell>
        <mxCell id="K5d2E1DVl8FYSgaZDxzp-52" value="&amp;lt;&amp;lt;Include&amp;gt;&amp;gt;" style="edgeLabel;html=1;align=center;verticalAlign=middle;resizable=0;points=[];" vertex="1" connectable="0" parent="K5d2E1DVl8FYSgaZDxzp-51">
          <mxGeometry x="-0.0191" y="1" relative="1" as="geometry">
            <mxPoint as="offset" />
          </mxGeometry>
        </mxCell>
      </root>
    </mxGraphModel>
  </diagram>
</mxfile>
